<svg width="17" height="17" viewBox="0 0 17 17" fill="none" xmlns="http://www.w3.org/2000/svg">
<path d="M13.1949 5.99994C14.5756 5.99994 15.6949 4.88065 15.6949 3.49994C15.6949 2.11923 14.5756 0.999939 13.1949 0.999939C11.8142 0.999939 10.6949 2.11923 10.6949 3.49994C10.6949 4.88065 11.8142 5.99994 13.1949 5.99994Z" stroke="#787486" stroke-width="1.5" stroke-miterlimit="10" stroke-linecap="round" stroke-linejoin="round"/>
<path d="M3.50001 5.99994C4.88072 5.99994 6 4.88065 6 3.49994C6 2.11923 4.88072 0.999939 3.50001 0.999939C2.11929 0.999939 1 2.11923 1 3.49994C1 4.88065 2.11929 5.99994 3.50001 5.99994Z" stroke="#787486" stroke-width="1.5" stroke-miterlimit="10" stroke-linecap="round" stroke-linejoin="round"/>
<path d="M13.1949 15.9999C14.5756 15.9999 15.6949 14.8807 15.6949 13.4999C15.6949 12.1192 14.5756 10.9999 13.1949 10.9999C11.8142 10.9999 10.6949 12.1192 10.6949 13.4999C10.6949 14.8807 11.8142 15.9999 13.1949 15.9999Z" stroke="#787486" stroke-width="1.5" stroke-miterlimit="10" stroke-linecap="round" stroke-linejoin="round"/>
<path d="M3.50001 15.9999C4.88072 15.9999 6 14.8807 6 13.4999C6 12.1192 4.88072 10.9999 3.50001 10.9999C2.11929 10.9999 1 12.1192 1 13.4999C1 14.8807 2.11929 15.9999 3.50001 15.9999Z" stroke="#787486" stroke-width="1.5" stroke-miterlimit="10" stroke-linecap="round" stroke-linejoin="round"/>
</svg>
