<svg width="18" height="22" viewBox="0 0 18 22" fill="none" xmlns="http://www.w3.org/2000/svg">
<path d="M9.02 1.91C5.71 1.91 3.02 4.6 3.02 7.91V10.8C3.02 11.41 2.76 12.34 2.45 12.86L1.3 14.77C0.589996 15.95 1.08 17.26 2.38 17.7C6.69 19.14 11.34 19.14 15.65 17.7C16.86 17.3 17.39 15.87 16.73 14.77L15.58 12.86C15.28 12.34 15.02 11.41 15.02 10.8V7.91C15.02 4.61 12.32 1.91 9.02 1.91Z" stroke="#787486" stroke-width="1.5" stroke-miterlimit="10" stroke-linecap="round"/>
<path d="M12.02 18.06C12.02 19.71 10.67 21.06 9.01999 21.06C8.19999 21.06 7.43999 20.72 6.89999 20.18C6.35999 19.64 6.01999 18.88 6.01999 18.06" stroke="#787486" stroke-width="1.5" stroke-miterlimit="10"/>
<circle cx="15" cy="3" r="3" fill="#D8727D"/>
</svg>
