<svg width="18" height="20" viewBox="0 0 18 20" fill="none" xmlns="http://www.w3.org/2000/svg">
<path d="M16.21 4.36C15.17 2.26 13.16 0.709996 10.83 0.199996C8.38997 -0.340004 5.88997 0.239996 3.97997 1.78C2.05997 3.31 0.969971 5.6 0.969971 8.05C0.969971 10.64 2.51997 13.35 4.85997 14.92V15.75C4.84997 16.03 4.83997 16.46 5.17997 16.81C5.52997 17.17 6.04997 17.21 6.45997 17.21H11.59C12.13 17.21 12.54 17.06 12.82 16.78C13.2 16.39 13.19 15.89 13.18 15.62V14.92C16.28 12.83 18.23 8.42 16.21 4.36Z" fill="#FBCB18"/>
<path d="M12.26 20C12.2 20 12.13 19.99 12.07 19.97C10.06 19.4 7.94997 19.4 5.93997 19.97C5.56997 20.07 5.17997 19.86 5.07997 19.49C4.96997 19.12 5.18997 18.73 5.55997 18.63C7.81997 17.99 10.2 17.99 12.46 18.63C12.83 18.74 13.05 19.12 12.94 19.49C12.84 19.8 12.56 20 12.26 20Z" fill="#FBCB18"/>
</svg>
