<svg width="14" height="16" viewBox="0 0 14 16" fill="none" xmlns="http://www.w3.org/2000/svg">
<path d="M4.33334 1.33333V3.33333" stroke="#787486" stroke-width="1.3" stroke-miterlimit="10" stroke-linecap="round" stroke-linejoin="round"/>
<path d="M9.66666 1.33333V3.33333" stroke="#787486" stroke-width="1.3" stroke-miterlimit="10" stroke-linecap="round" stroke-linejoin="round"/>
<path d="M9.66667 2.33333C11.8867 2.45333 13 3.29999 13 6.43333V10.5533C13 13.3 12.3333 14.6733 9 14.6733H5C1.66667 14.6733 1 13.3 1 10.5533V6.43333C1 3.29999 2.11333 2.45999 4.33333 2.33333H9.66667Z" stroke="#787486" stroke-width="1.3" stroke-miterlimit="10" stroke-linecap="round" stroke-linejoin="round"/>
<path d="M12.8333 11.7333H1.16666" stroke="#787486" stroke-width="1.3" stroke-miterlimit="10" stroke-linecap="round" stroke-linejoin="round"/>
<path d="M7.00001 5.5C6.18001 5.5 5.48668 5.94667 5.48668 6.81333C5.48668 7.22667 5.68001 7.54 5.97334 7.74C5.56668 7.98 5.33334 8.36667 5.33334 8.82C5.33334 9.64667 5.96668 10.16 7.00001 10.16C8.02668 10.16 8.66668 9.64667 8.66668 8.82C8.66668 8.36667 8.43334 7.97333 8.02001 7.74C8.32001 7.53333 8.50668 7.22667 8.50668 6.81333C8.50668 5.94667 7.82001 5.5 7.00001 5.5ZM7.00001 7.39333C6.65334 7.39333 6.40001 7.18667 6.40001 6.86C6.40001 6.52667 6.65334 6.33333 7.00001 6.33333C7.34668 6.33333 7.60001 6.52667 7.60001 6.86C7.60001 7.18667 7.34668 7.39333 7.00001 7.39333ZM7.00001 9.33333C6.56001 9.33333 6.24001 9.11333 6.24001 8.71333C6.24001 8.31333 6.56001 8.1 7.00001 8.1C7.44001 8.1 7.76001 8.32 7.76001 8.71333C7.76001 9.11333 7.44001 9.33333 7.00001 9.33333Z" fill="#787486"/>
</svg>
