<svg width="16" height="16" viewBox="0 0 16 16" fill="none" xmlns="http://www.w3.org/2000/svg">
<path d="M13.925 9.125L2.075 9.125C0.95 9.125 0.5 9.6 0.5 10.8L0.5 13.825C0.5 15.025 0.95 15.5 2.075 15.5L13.925 15.5C15.05 15.5 15.5 15.025 15.5 13.825L15.5 10.8C15.5 9.6 15.05 9.125 13.925 9.125Z" fill="white"/>
<path d="M13.925 0.5L2.075 0.500001C0.95 0.500001 0.5 0.975001 0.5 2.175L0.5 5.2C0.5 6.39167 0.95 6.875 2.075 6.875L13.925 6.875C15.05 6.875 15.5 6.4 15.5 5.2L15.5 2.175C15.5 0.975 15.05 0.5 13.925 0.5Z" fill="white"/>
</svg>
