<svg width="22" height="22" viewBox="0 0 22 22" fill="none" xmlns="http://www.w3.org/2000/svg">
<path d="M16 17.4301H12L7.54999 20.39C6.88999 20.83 6 20.3601 6 19.5601V17.4301C3 17.4301 1 15.4301 1 12.4301V6.42999C1 3.42999 3 1.42999 6 1.42999H16C19 1.42999 21 3.42999 21 6.42999V12.4301C21 15.4301 19 17.4301 16 17.4301Z" stroke="#787486" stroke-width="1.5" stroke-miterlimit="10" stroke-linecap="round" stroke-linejoin="round"/>
<path d="M11 10.36V10.15C11 9.47002 11.42 9.11001 11.84 8.82001C12.25 8.54001 12.66 8.18002 12.66 7.52002C12.66 6.60002 11.92 5.85999 11 5.85999C10.08 5.85999 9.34003 6.60002 9.34003 7.52002" stroke="#787486" stroke-width="1.5" stroke-linecap="round" stroke-linejoin="round"/>
<path d="M10.9955 12.75H11.0045" stroke="#787486" stroke-width="1.5" stroke-linecap="round" stroke-linejoin="round"/>
</svg>
