<svg width="16" height="10" viewBox="0 0 16 10" fill="none" xmlns="http://www.w3.org/2000/svg">
<path d="M9.99333 9.31668H11C13.3828 9.31668 15.3167 7.38285 15.3167 5.00001C15.3167 2.61717 13.3828 0.683343 11 0.683343H10C9.63586 0.683343 9.35 0.978474 9.35 1.33334C9.35 1.68952 9.64382 1.98334 10 1.98334H11C12.6638 1.98334 14.0167 3.33619 14.0167 5.00001C14.0167 6.66383 12.6638 8.01668 11 8.01668H9.99333C9.63716 8.01668 9.34333 8.3105 9.34333 8.66668C9.34333 9.02285 9.63716 9.31668 9.99333 9.31668Z" fill="#5030E5" stroke="#5030E5" stroke-width="0.3"/>
<path d="M5 9.31668H6C6.35618 9.31668 6.65 9.02285 6.65 8.66668C6.65 8.3105 6.35618 8.01668 6 8.01668H5C3.33618 8.01668 1.98334 6.66383 1.98334 5.00001C1.98334 3.33619 3.33618 1.98334 5 1.98334H6C6.35618 1.98334 6.65 1.68952 6.65 1.33334C6.65 0.977167 6.35618 0.683343 6 0.683343H5C2.61716 0.683343 0.683336 2.61717 0.683336 5.00001C0.683336 7.38285 2.61716 9.31668 5 9.31668Z" fill="#5030E5" stroke="#5030E5" stroke-width="0.3"/>
<path d="M5.33334 5.65H10.6667C11.0228 5.65 11.3167 5.35618 11.3167 5C11.3167 4.64382 11.0228 4.35 10.6667 4.35H5.33334C4.97716 4.35 4.68334 4.64382 4.68334 5C4.68334 5.35618 4.97716 5.65 5.33334 5.65Z" fill="#5030E5" stroke="#5030E5" stroke-width="0.3"/>
</svg>
