<svg width="22" height="22" viewBox="0 0 22 22" fill="none" xmlns="http://www.w3.org/2000/svg">
<path d="M8.16 9.87C8.06 9.86 7.94 9.86 7.83 9.87C5.45 9.79 3.56 7.84 3.56 5.44C3.56 2.99 5.54 1 8 1C10.45 1 12.44 2.99 12.44 5.44C12.43 7.84 10.54 9.79 8.16 9.87Z" stroke="#787486" stroke-width="1.5" stroke-linecap="round" stroke-linejoin="round"/>
<path d="M15.41 3C17.35 3 18.91 4.57 18.91 6.5C18.91 8.39 17.41 9.93 15.54 10C15.46 9.99 15.37 9.99 15.28 10" stroke="#787486" stroke-width="1.5" stroke-linecap="round" stroke-linejoin="round"/>
<path d="M3.15997 13.56C0.739971 15.18 0.739971 17.82 3.15997 19.43C5.90997 21.27 10.42 21.27 13.17 19.43C15.59 17.81 15.59 15.17 13.17 13.56C10.43 11.73 5.91997 11.73 3.15997 13.56Z" stroke="#787486" stroke-width="1.5" stroke-linecap="round" stroke-linejoin="round"/>
<path d="M17.34 19C18.06 18.85 18.74 18.56 19.3 18.13C20.86 16.96 20.86 15.03 19.3 13.86C18.75 13.44 18.08 13.16 17.37 13" stroke="#787486" stroke-width="1.5" stroke-linecap="round" stroke-linejoin="round"/>
</svg>
